<svg width="24" height="24" viewBox="0 0 24 24" fill="none" xmlns="http://www.w3.org/2000/svg">
<g clip-path="url(#clip0_628_5840)">
<rect width="24" height="24" fill="#F1F3F7"/>
<path fill-rule="evenodd" clip-rule="evenodd" d="M12.0001 8.16007C11.1626 8.16007 10.4838 8.83895 10.4838 9.67638C10.4838 10.5138 11.1626 11.1927 12.0001 11.1927C12.8375 11.1927 13.5164 10.5138 13.5164 9.67638C13.5164 8.83895 12.8375 8.16007 12.0001 8.16007ZM9.74057 9.67638C9.74057 8.42849 10.7522 7.41687 12.0001 7.41687C13.248 7.41687 14.2596 8.42849 14.2596 9.67638C14.2596 10.9243 13.248 11.9359 12.0001 11.9359C10.7522 11.9359 9.74057 10.9243 9.74057 9.67638Z" fill="#6D758F"/>
<path fill-rule="evenodd" clip-rule="evenodd" d="M9.16554 13.4655C9.84462 13.0602 10.7634 12.7902 12.0001 12.7902C13.2368 12.7902 14.1555 13.0602 14.8346 13.4655C15.514 13.8711 15.9318 14.3991 16.1863 14.881L16.1863 14.881C16.4141 15.3123 16.3395 15.7598 16.081 16.0844C15.8324 16.3967 15.4276 16.5831 14.9932 16.5831H9.00701C8.57253 16.5831 8.16779 16.3967 7.91913 16.0844C7.66062 15.7598 7.5861 15.3123 7.81389 14.881C8.0684 14.3991 8.48617 13.8711 9.16554 13.4655ZM9.54647 14.1037C9.00173 14.4288 8.67224 14.8472 8.47107 15.2281L8.47107 15.2281C8.38908 15.3833 8.41517 15.5143 8.50052 15.6215C8.59574 15.741 8.77815 15.8399 9.00701 15.8399H14.9932C15.222 15.8399 15.4044 15.741 15.4996 15.6215C15.585 15.5143 15.6111 15.3833 15.5291 15.2281C15.3279 14.8472 14.9984 14.4288 14.4537 14.1037C13.9087 13.7783 13.1265 13.5334 12.0001 13.5334C10.8737 13.5334 10.0915 13.7783 9.54647 14.1037Z" fill="#6D758F"/>
</g>
<defs>
<clipPath id="clip0_628_5840">
<rect width="24" height="24" rx="12" fill="white"/>
</clipPath>
</defs>
</svg>
