<svg width="24" height="24" viewBox="0 0 24 24" fill="none" xmlns="http://www.w3.org/2000/svg">
<rect width="24" height="24" rx="12" fill="#664545"/>
<path d="M12 13.7935L8.19541 17.6087C7.95489 17.8478 7.64877 17.9674 7.27705 17.9674C6.90534 17.9674 6.59922 17.8478 6.3587 17.6087C6.11957 17.3696 6 17.0652 6 16.6957C6 16.3261 6.11957 16.0217 6.3587 15.7826L10.1739 11.9674L6.3587 8.19548C6.11957 7.95493 6 7.6488 6 7.27709C6 6.90535 6.11957 6.59922 6.3587 6.3587C6.59783 6.11957 6.90217 6 7.27174 6C7.6413 6 7.94565 6.11957 8.18478 6.3587L12 10.1739L15.7719 6.3587C16.0125 6.11957 16.3186 6 16.6903 6C17.062 6 17.3682 6.11957 17.6087 6.3587C17.8696 6.61957 18 6.92935 18 7.28804C18 7.64674 17.8696 7.94565 17.6087 8.18478L13.7935 11.9674L17.6087 15.772C17.8478 16.0125 17.9674 16.3186 17.9674 16.6903C17.9674 17.0621 17.8478 17.3682 17.6087 17.6087C17.3478 17.8696 17.038 18 16.6793 18C16.3207 18 16.0217 17.8696 15.7826 17.6087L12 13.7935Z" fill="white"/>
</svg>
