<svg width="24" height="24" viewBox="0 0 24 24" fill="none" xmlns="http://www.w3.org/2000/svg">
<path d="M24 12.0003C24 18.061 19.5071 23.0713 13.6709 23.8846C13.125 23.9606 12.5666 24 12 24C11.3456 24 10.7037 23.9475 10.0776 23.8466C4.3644 22.9269 0 17.9725 0 11.9997C0 5.37241 5.37258 0 12 0C18.6274 0 24 5.37241 24 11.9997V12.0003Z" fill="#664545"/>
<path d="M13.6703 9.6351V12.2491H16.9042L16.3922 15.771H13.6703V23.8846C13.1244 23.9606 12.5661 24 11.9995 24C11.3451 24 10.7032 23.9475 10.0771 23.8466V15.771H7.09473V12.2491H10.0771V9.05121C10.0771 7.0667 11.6858 5.4574 13.671 5.4574V5.45947C13.6765 5.45947 13.6821 5.4574 13.6876 5.4574H16.9049V8.50257H14.8029C14.1775 8.50257 13.671 9.00906 13.671 9.63441L13.6703 9.6351Z" fill="white"/>
</svg>
