<svg width="24" height="24" viewBox="0 0 24 24" fill="none" xmlns="http://www.w3.org/2000/svg">
<path d="M24 12.0003C24 18.061 19.5071 23.0713 13.6709 23.8846C13.125 23.9606 12.5666 24 12 24C11.3456 24 10.7037 23.9475 10.0776 23.8466C4.3644 22.9269 0 17.9725 0 11.9997C0 5.37241 5.37258 0 12 0C18.6274 0 24 5.37241 24 11.9997V12.0003Z" fill="#664545"/>
<path d="M15.7579 4.79681H8.24185C6.16538 4.79681 4.47656 6.48558 4.47656 8.56199V15.438C4.47656 17.5144 6.16538 19.2032 8.24185 19.2032H15.7579C17.8344 19.2032 19.5232 17.5144 19.5232 15.438V8.56199C19.5232 6.48558 17.8344 4.79681 15.7579 4.79681ZM5.80467 8.56199C5.80467 7.21803 6.89784 6.12489 8.24185 6.12489H15.7579C17.1019 6.12489 18.1951 7.21803 18.1951 8.56199V15.438C18.1951 16.782 17.1019 17.8751 15.7579 17.8751H8.24185C6.89784 17.8751 5.80467 16.782 5.80467 15.438V8.56199Z" fill="white"/>
<path d="M11.9993 15.503C13.9307 15.503 15.502 13.9317 15.502 12.0003C15.502 10.069 13.9307 8.49774 11.9993 8.49774C10.0679 8.49774 8.49658 10.069 8.49658 12.0003C8.49658 13.9317 10.0679 15.503 11.9993 15.503ZM11.9993 9.82651C13.1982 9.82651 14.1732 10.8015 14.1732 12.0003C14.1732 13.1992 13.1982 14.1742 11.9993 14.1742C10.8004 14.1742 9.82538 13.1992 9.82538 12.0003C9.82538 10.8015 10.8004 9.82651 11.9993 9.82651Z" fill="white"/>
<path d="M15.8267 9.06294C16.347 9.06294 16.7706 8.63937 16.7706 8.11906C16.7706 7.59875 16.347 7.17517 15.8267 7.17517C15.3064 7.17517 14.8828 7.59875 14.8828 8.11906C14.8828 8.63937 15.3064 9.06294 15.8267 9.06294Z" fill="white"/>
</svg>
