<svg width="130" height="34" viewBox="0 0 130 34" fill="none" xmlns="http://www.w3.org/2000/svg">
<path d="M0 10.71C0 8.67 0.46 6.84 1.38 5.22C2.3 3.58 3.55 2.3 5.13 1.38C6.73 0.46 8.5 0 10.44 0C12.72 0 14.71 0.55 16.41 1.65C18.11 2.75 19.35 4.31 20.13 6.33H16.86C16.28 5.07 15.44 4.1 14.34 3.42C13.26 2.74 11.96 2.4 10.44 2.4C8.98 2.4 7.67 2.74 6.51 3.42C5.35 4.1 4.44 5.07 3.78 6.33C3.12 7.57 2.79 9.03 2.79 10.71C2.79 12.37 3.12 13.83 3.78 15.09C4.44 16.33 5.35 17.29 6.51 17.97C7.67 18.65 8.98 18.99 10.44 18.99C11.96 18.99 13.26 18.66 14.34 18C15.44 17.32 16.28 16.35 16.86 15.09H20.13C19.35 17.09 18.11 18.64 16.41 19.74C14.71 20.82 12.72 21.36 10.44 21.36C8.5 21.36 6.73 20.91 5.13 20.01C3.55 19.09 2.3 17.82 1.38 16.2C0.46 14.58 0 12.75 0 10.71Z" fill="#664545"/>
<path fill-rule="evenodd" clip-rule="evenodd" d="M27.4612 14.2075C28.0362 14.2796 28.5678 14.4913 29.021 14.8074C29.5879 14.412 30.2773 14.1801 31.021 14.1801C31.7646 14.1801 32.4541 14.412 33.021 14.8074C33.5879 14.412 34.2773 14.1801 35.021 14.1801C35.9292 14.1801 36.7567 14.526 37.3787 15.0932L32.1869 0.34193L27.4612 14.2075ZM31.1855 0.180054H30.1299L24.756 15.0116C25.2154 14.6213 25.777 14.3474 26.395 14.2359L31.1855 0.180054ZM39.1299 18.1801C39.1299 19.8369 37.7867 21.1801 36.1299 21.1801C35.0864 21.1801 34.1673 20.6473 33.6299 19.8389C33.0924 20.6473 32.1734 21.1801 31.1299 21.1801C30.0864 21.1801 29.1673 20.6473 28.6299 19.8389C28.0924 20.6473 27.1734 21.1801 26.1299 21.1801C24.473 21.1801 23.1299 19.8369 23.1299 18.1801C23.1299 16.5232 24.473 15.1801 26.1299 15.1801C27.1734 15.1801 28.0924 15.7128 28.6299 16.5212C29.1673 15.7128 30.0864 15.1801 31.1299 15.1801C32.1734 15.1801 33.0924 15.7128 33.6299 16.5212C34.1673 15.7128 35.0864 15.1801 36.1299 15.1801C37.7867 15.1801 39.1299 16.5232 39.1299 18.1801Z" fill="#664545"/>
<path d="M53.4699 21.135L44.8599 11.595V21.135H42.1299V0.224976H44.8599V9.91498L53.4999 0.224976H56.9499L47.4699 10.695L57.0399 21.135H53.4699Z" fill="#664545"/>
<path d="M62.77 2.45996V9.44996H70.39V11.7H62.77V18.9H71.29V21.15H60.04V0.209961H71.29V2.45996H62.77Z" fill="#664545"/>
<path d="M102.19 0.209961L96.13 21.12H93.07L88.21 4.28996L83.17 21.12L80.14 21.15L74.29 0.209961H77.2L81.76 17.94L86.8 0.209961H89.86L94.66 17.88L99.25 0.209961H102.19Z" fill="#664545"/>
<path d="M118.87 16.425H109.75L108.07 21.075H105.19L112.75 0.285034H115.9L123.43 21.075H120.55L118.87 16.425ZM118.09 14.205L114.31 3.64503L110.53 14.205H118.09Z" fill="#664545"/>
<path d="M129.16 0.224976V21.135H126.43V0.224976H129.16Z" fill="#664545"/>
<path d="M1.52235 25.536V27.168H3.44235V27.912H1.52235V29.616H3.68235V30.36H0.610352V24.792H3.68235V25.536H1.52235ZM7.35766 30.416C6.98433 30.416 6.64833 30.352 6.34966 30.224C6.05099 30.0907 5.81633 29.904 5.64566 29.664C5.47499 29.424 5.38966 29.144 5.38966 28.824H6.36566C6.38699 29.064 6.48033 29.2613 6.64566 29.416C6.81633 29.5707 7.05366 29.648 7.35766 29.648C7.67233 29.648 7.91766 29.5733 8.09366 29.424C8.26966 29.2693 8.35766 29.072 8.35766 28.832C8.35766 28.6453 8.30166 28.4933 8.18966 28.376C8.08299 28.2587 7.94699 28.168 7.78166 28.104C7.62166 28.04 7.39766 27.9707 7.10966 27.896C6.74699 27.8 6.45099 27.704 6.22166 27.608C5.99766 27.5067 5.80566 27.352 5.64566 27.144C5.48566 26.936 5.40566 26.6587 5.40566 26.312C5.40566 25.992 5.48566 25.712 5.64566 25.472C5.80566 25.232 6.02966 25.048 6.31766 24.92C6.60566 24.792 6.93899 24.728 7.31766 24.728C7.85633 24.728 8.29633 24.864 8.63766 25.136C8.98433 25.4027 9.17633 25.7707 9.21366 26.24H8.20566C8.18966 26.0373 8.09366 25.864 7.91766 25.72C7.74166 25.576 7.50966 25.504 7.22166 25.504C6.96033 25.504 6.74699 25.5707 6.58166 25.704C6.41633 25.8373 6.33366 26.0293 6.33366 26.28C6.33366 26.4507 6.38433 26.592 6.48566 26.704C6.59233 26.8107 6.72566 26.896 6.88566 26.96C7.04566 27.024 7.26433 27.0933 7.54166 27.168C7.90966 27.2693 8.20833 27.3707 8.43766 27.472C8.67233 27.5733 8.86966 27.7307 9.02966 27.944C9.19499 28.152 9.27766 28.432 9.27766 28.784C9.27766 29.0667 9.20033 29.3333 9.04566 29.584C8.89633 29.8347 8.67499 30.0373 8.38166 30.192C8.09366 30.3413 7.75233 30.416 7.35766 30.416ZM14.6658 24.8V25.544H13.1858V30.36H12.2738V25.544H10.7858V24.8H14.6658Z" fill="#664545"/>
<path d="M108.134 29.12C108.646 28.6773 109.049 28.3147 109.342 28.032C109.641 27.744 109.889 27.4453 110.086 27.136C110.284 26.8267 110.382 26.5173 110.382 26.208C110.382 25.888 110.305 25.6373 110.15 25.456C110.001 25.2747 109.764 25.184 109.438 25.184C109.124 25.184 108.878 25.2853 108.702 25.488C108.532 25.6853 108.441 25.952 108.43 26.288H107.55C107.566 25.68 107.748 25.216 108.094 24.896C108.446 24.5707 108.892 24.408 109.43 24.408C110.012 24.408 110.465 24.568 110.79 24.888C111.121 25.208 111.286 25.6347 111.286 26.168C111.286 26.552 111.188 26.9227 110.99 27.28C110.798 27.632 110.566 27.9493 110.294 28.232C110.028 28.5093 109.686 28.832 109.27 29.2L108.91 29.52H111.446V30.28H107.558V29.616L108.134 29.12ZM112.968 27.368C112.968 26.4453 113.122 25.7253 113.432 25.208C113.746 24.6853 114.285 24.424 115.048 24.424C115.81 24.424 116.346 24.6853 116.656 25.208C116.97 25.7253 117.128 26.4453 117.128 27.368C117.128 28.3013 116.97 29.032 116.656 29.56C116.346 30.0827 115.81 30.344 115.048 30.344C114.285 30.344 113.746 30.0827 113.432 29.56C113.122 29.032 112.968 28.3013 112.968 27.368ZM116.232 27.368C116.232 26.936 116.202 26.5707 116.144 26.272C116.09 25.9733 115.978 25.7307 115.808 25.544C115.637 25.352 115.384 25.256 115.048 25.256C114.712 25.256 114.458 25.352 114.288 25.544C114.117 25.7307 114.002 25.9733 113.944 26.272C113.89 26.5707 113.864 26.936 113.864 27.368C113.864 27.816 113.89 28.192 113.944 28.496C113.997 28.8 114.109 29.0453 114.28 29.232C114.456 29.4187 114.712 29.512 115.048 29.512C115.384 29.512 115.637 29.4187 115.808 29.232C115.984 29.0453 116.098 28.8 116.152 28.496C116.205 28.192 116.232 27.816 116.232 27.368ZM119.317 29.12C119.829 28.6773 120.231 28.3147 120.525 28.032C120.823 27.744 121.071 27.4453 121.269 27.136C121.466 26.8267 121.565 26.5173 121.565 26.208C121.565 25.888 121.487 25.6373 121.333 25.456C121.183 25.2747 120.946 25.184 120.621 25.184C120.306 25.184 120.061 25.2853 119.885 25.488C119.714 25.6853 119.623 25.952 119.613 26.288H118.733C118.749 25.68 118.93 25.216 119.277 24.896C119.629 24.5707 120.074 24.408 120.613 24.408C121.194 24.408 121.647 24.568 121.973 24.888C122.303 25.208 122.469 25.6347 122.469 26.168C122.469 26.552 122.37 26.9227 122.173 27.28C121.981 27.632 121.749 27.9493 121.477 28.232C121.21 28.5093 120.869 28.832 120.453 29.2L120.093 29.52H122.629V30.28H118.741V29.616L119.317 29.12ZM124.038 29.144V28.456L126.726 24.6H127.83V28.352H128.574V29.144H127.83V30.36H126.934V29.144H124.038ZM126.974 25.528L125.086 28.352H126.974V25.528Z" fill="#664545"/>
</svg>
