<svg width="24" height="24" viewBox="0 0 24 24" fill="none" xmlns="http://www.w3.org/2000/svg">
<path d="M24 12.0003C24 18.061 19.5071 23.0713 13.6709 23.8846C13.125 23.9606 12.5666 24 12 24C11.3456 24 10.7037 23.9475 10.0776 23.8466C4.3644 22.9269 0 17.9725 0 11.9997C0 5.37241 5.37256 0 12 0C18.6274 0 24 5.37241 24 11.9997V12.0003Z" fill="#664545"/>
<path d="M17.8715 8.64215V10.9348C17.47 10.8961 16.9504 10.8049 16.3734 10.5935C15.6209 10.3178 15.0605 9.94051 14.6943 9.64822V14.2834L14.6853 14.2688C14.6915 14.3607 14.6943 14.454 14.6943 14.5487C14.6943 16.8511 12.8216 18.7243 10.5185 18.7243C8.21539 18.7243 6.34277 16.8504 6.34277 14.5487C6.34277 12.247 8.21539 10.3724 10.5185 10.3724C10.7438 10.3724 10.9649 10.3903 11.1812 10.4249V12.6851C10.9732 12.6105 10.7507 12.5704 10.5185 12.5704C9.42811 12.5704 8.54017 13.4576 8.54017 14.5487C8.54017 15.6398 9.42811 16.527 10.5185 16.527C11.6089 16.527 12.4969 15.6391 12.4969 14.5487C12.4969 14.5079 12.4962 14.4672 12.4934 14.4264V5.4187H14.7855C14.7938 5.61287 14.8021 5.80842 14.8097 6.00258C14.8249 6.3847 14.961 6.75161 15.198 7.05219C15.4765 7.40528 15.8869 7.81573 16.4646 8.14326C17.005 8.44936 17.5122 8.58065 17.8715 8.64284V8.64215Z" fill="white"/>
</svg>
