<svg width="24" height="24" viewBox="0 0 24 24" fill="none" xmlns="http://www.w3.org/2000/svg">
<path d="M24 12.0003C24 18.061 19.5071 23.0713 13.6709 23.8846C13.125 23.9606 12.5666 24 12 24C11.3456 24 10.7037 23.9475 10.0776 23.8466C4.3644 22.9269 0 17.9725 0 11.9997C0 5.37242 5.37258 0 12 0C18.6274 0 24 5.37242 24 11.9997V12.0003Z" fill="#664545"/>
<path d="M19.6258 9.49135C19.5312 8.57096 19.326 7.55452 18.5714 7.0197C17.9861 6.6051 17.2177 6.5899 16.5004 6.5906C14.9837 6.59198 13.4669 6.59336 11.9502 6.59475C10.4914 6.59613 9.03274 6.59751 7.57403 6.59889C6.96456 6.59889 6.37237 6.5519 5.80643 6.81517C5.31997 7.04181 4.93991 7.4723 4.71188 7.95115C4.39401 8.61795 4.32699 9.37251 4.28899 10.1098C4.21851 11.4517 4.22611 12.7977 4.31111 14.1382C4.37261 15.1174 4.52945 16.1987 5.2861 16.8227C5.95707 17.3755 6.90375 17.4024 7.77303 17.4031C10.5343 17.4052 13.2956 17.4073 16.0568 17.41C16.4106 17.41 16.7803 17.4038 17.141 17.3644C17.8513 17.2877 18.5278 17.0846 18.9839 16.5588C19.4441 16.0288 19.5623 15.2901 19.6328 14.5915C19.8028 12.8972 19.8007 11.185 19.6258 9.49135ZM10.3533 14.3766V9.62402L14.4696 12.0003L10.3533 14.3766Z" fill="white"/>
</svg>
