<svg width="300" height="395" viewBox="0 0 300 395" fill="none" xmlns="http://www.w3.org/2000/svg">
<path fill-rule="evenodd" clip-rule="evenodd" d="M81.2118 263.849C91.9929 265.206 101.96 269.187 110.458 275.133C121.088 267.696 134.015 263.333 147.958 263.333C161.902 263.333 174.829 267.696 185.458 275.133C196.088 267.696 209.015 263.333 222.958 263.333C239.988 263.333 255.502 269.84 267.165 280.51L169.818 3.04482L81.2118 263.849ZM151.044 0H131.25L30.4894 278.975C39.104 271.632 49.6335 266.482 61.2213 264.383L151.044 0ZM300 338.571C300 369.736 274.816 395 243.75 395C224.185 395 206.952 384.979 196.875 369.774C186.798 384.979 169.565 395 150 395C130.435 395 113.202 384.979 103.125 369.774C93.0476 384.979 75.8154 395 56.25 395C25.184 395 0 369.736 0 338.571C0 307.407 25.184 282.143 56.25 282.143C75.8154 282.143 93.0476 292.164 103.125 307.368C113.202 292.164 130.435 282.143 150 282.143C169.565 282.143 186.798 292.164 196.875 307.368C206.952 292.164 224.185 282.143 243.75 282.143C274.816 282.143 300 307.407 300 338.571Z" fill="#664545"/>
</svg>
